<svg width="24" height="25" fill="none" xmlns="http://www.w3.org/2000/svg"><path d="M20 13.5c0 5-3.5 7.5-7.66 8.95a1 1 0 0 1-.67-.01C7.5 21 4 18.5 4 13.5v-7a1 1 0 0 1 1-1c2 0 4.5-1.2 6.24-2.72a1.17 1.17 0 0 1 1.52 0C14.51 4.31 17 5.5 19 5.5a1 1 0 0 1 1 1v7z" stroke="#060404" stroke-width="2" stroke-linecap="round" stroke-linejoin="round"/><path d="M6.377 19.41a6 6 0 0 1 11.249.003" stroke="#060404" stroke-width="2" stroke-linecap="round" stroke-linejoin="round"/><path d="M12 15.5a4 4 0 1 0 0-8 4 4 0 0 0 0 8z" stroke="#060404" stroke-width="2" stroke-linecap="round" stroke-linejoin="round"/></svg>