<svg width="24" height="25" fill="none" xmlns="http://www.w3.org/2000/svg"><path d="M16 2.5v4m-8-4v4M13 4.5h-2c-3.771 0-5.657 0-6.828 1.172C3 6.843 3 8.729 3 12.5v2c0 3.771 0 5.657 1.172 6.828C5.343 22.5 7.229 22.5 11 22.5h2c3.771 0 5.657 0 6.828-1.172C21 20.157 21 18.271 21 14.5v-2c0-3.771 0-5.657-1.172-6.828C18.657 4.5 16.771 4.5 13 4.5zM3 10.5h18M11.995 14.5h.01m-.01 4h.01m3.986-4H16m-8 0h.009M8 18.5h.009" stroke="#000" stroke-width="1.5" stroke-linecap="round" stroke-linejoin="round"/></svg>