<svg width="37" height="32" viewBox="0 0 37 32" fill="none" xmlns="http://www.w3.org/2000/svg">
<path d="M35.4428 11.6347H1.88912C1.20127 11.6347 0.630859 11.0643 0.630859 10.3764C0.630859 9.68858 1.20127 9.11816 1.88912 9.11816H35.4428C36.1307 9.11816 36.7011 9.68858 36.7011 10.3764C36.7011 11.0643 36.1307 11.6347 35.4428 11.6347Z" fill="#DDEEFB"/>
<path d="M11.9554 25.0556H8.60006C7.91221 25.0556 7.3418 24.4852 7.3418 23.7973C7.3418 23.1095 7.91221 22.5391 8.60006 22.5391H11.9554C12.6433 22.5391 13.2137 23.1095 13.2137 23.7973C13.2137 24.4852 12.6433 25.0556 11.9554 25.0556Z" fill="#DDEEFB"/>
<path d="M22.8596 25.0556H16.1489C15.461 25.0556 14.8906 24.4852 14.8906 23.7973C14.8906 23.1095 15.461 22.5391 16.1489 22.5391H22.8596C23.5475 22.5391 24.1179 23.1095 24.1179 23.7973C24.1179 24.4852 23.5475 25.0556 22.8596 25.0556Z" fill="#DDEEFB"/>
<path d="M27.9939 31.7667H9.33804C2.66086 31.7667 0.630859 29.7534 0.630859 23.1434V9.35279C0.630859 2.74271 2.66086 0.729492 9.33804 0.729492H27.9771C34.6543 0.729492 36.6843 2.74271 36.6843 9.35279V23.1266C36.7011 29.7534 34.6711 31.7667 27.9939 31.7667ZM9.33804 3.24602C4.07011 3.24602 3.14739 4.15197 3.14739 9.35279V23.1266C3.14739 28.3274 4.07011 29.2334 9.33804 29.2334H27.9771C33.245 29.2334 34.1678 28.3274 34.1678 23.1266V9.35279C34.1678 4.15197 33.245 3.24602 27.9771 3.24602H9.33804Z" fill="#DDEEFB"/>
</svg>
