<svg width="40" height="40" viewBox="0 0 40 40" fill="none" xmlns="http://www.w3.org/2000/svg">
<path d="M9.58398 26.85V13.15C11.734 12.6 13.334 10.6667 13.334 8.33333C13.334 5.56667 11.1007 3.33333 8.33398 3.33333C5.56732 3.33333 3.33398 5.56667 3.33398 8.33333C3.33398 10.6667 4.93398 12.6 7.08398 13.15V26.8333C4.93398 27.4 3.33398 29.3333 3.33398 31.6667C3.33398 34.4333 5.56732 36.6667 8.33398 36.6667C11.1007 36.6667 13.334 34.4333 13.334 31.6667C13.334 29.3333 11.734 27.4 9.58398 26.85Z" fill="#292D32"/>
<path d="M32.9167 26.85V10.8334C32.9167 8.30002 30.8667 6.25002 28.3333 6.25002H23.45L25.8 4.30002C26.3333 3.85002 26.4 3.06669 25.9667 2.53335C25.5167 2.00002 24.7333 1.93335 24.2 2.36669L19.2 6.53335C18.9167 6.76669 18.75 7.11669 18.75 7.50002C18.75 7.88335 18.9167 8.21669 19.2 8.46669L24.2 12.6334C24.4333 12.8334 24.7167 12.9167 25 12.9167C25.35 12.9167 25.7167 12.7667 25.9667 12.4667C26.4167 11.9334 26.3333 11.15 25.8 10.7L23.45 8.75002H28.3333C29.4833 8.75002 30.4167 9.68335 30.4167 10.8334V26.85C28.2667 27.4 26.6667 29.3334 26.6667 31.6667C26.6667 34.4334 28.9 36.6667 31.6667 36.6667C34.4333 36.6667 36.6667 34.4334 36.6667 31.6667C36.6667 29.3334 35.0667 27.4 32.9167 26.85Z" fill="#292D32"/>
</svg>
