<svg width="16" height="16" fill="none" xmlns="http://www.w3.org/2000/svg"><g clip-path="url(#a)"><path fill-rule="evenodd" clip-rule="evenodd" d="M.832 8a7.167 7.167 0 1 0 14.333 0A7.167 7.167 0 0 0 .832 8zM5.527 5.53c.26-.26.683-.26.943 0L8 7.058l1.528-1.53a.667.667 0 1 1 .943.944L8.941 8 10.47 9.53a.667.667 0 0 1-.943.943L7.999 8.943 6.47 10.472a.667.667 0 0 1-.943-.943L7.056 8 5.527 6.472a.667.667 0 0 1 0-.943z" fill="#373737"/></g><defs><clipPath id="a"><path fill="#fff" d="M0 0h16v16H0z"/></clipPath></defs></svg>