<svg width="24" height="24" fill="none" xmlns="http://www.w3.org/2000/svg"><path d="M13.69 19.457c-.19-.46-.19-1.042-.19-2.207 0-1.165 0-1.747.19-2.207a2.5 2.5 0 0 1 1.353-1.353c.46-.19 1.042-.19 2.207-.19 1.165 0 1.747 0 2.207.19a2.5 2.5 0 0 1 1.353 1.353c.19.46.19 1.042.19 2.207 0 1.165 0 1.747-.19 2.207a2.5 2.5 0 0 1-1.353 1.353c-.46.19-1.042.19-2.207.19-1.165 0-1.747 0-2.207-.19a2.5 2.5 0 0 1-1.353-1.353zM13.69 8.957c-.19-.46-.19-1.042-.19-2.207 0-1.165 0-1.747.19-2.207a2.5 2.5 0 0 1 1.353-1.353C15.503 3 16.085 3 17.25 3c1.165 0 1.747 0 2.207.19a2.5 2.5 0 0 1 1.353 1.353c.19.46.19 1.042.19 2.207 0 1.165 0 1.747-.19 2.207a2.5 2.5 0 0 1-1.353 1.353c-.46.19-1.042.19-2.207.19-1.165 0-1.747 0-2.207-.19a2.5 2.5 0 0 1-1.353-1.353zM3.19 19.457C3 18.997 3 18.415 3 17.25c0-1.165 0-1.747.19-2.207a2.5 2.5 0 0 1 1.353-1.353c.46-.19 1.042-.19 2.207-.19 1.165 0 1.747 0 2.207.19a2.5 2.5 0 0 1 1.353 1.353c.19.46.19 1.042.19 2.207 0 1.165 0 1.747-.19 2.207a2.5 2.5 0 0 1-1.353 1.353c-.46.19-1.042.19-2.207.19-1.165 0-1.747 0-2.207-.19a2.5 2.5 0 0 1-1.353-1.353zM3.19 8.957C3 8.497 3 7.915 3 6.75c0-1.165 0-1.747.19-2.207A2.5 2.5 0 0 1 4.543 3.19C5.003 3 5.585 3 6.75 3c1.165 0 1.747 0 2.207.19a2.5 2.5 0 0 1 1.353 1.353c.19.46.19 1.042.19 2.207 0 1.165 0 1.747-.19 2.207a2.5 2.5 0 0 1-1.353 1.353c-.46.19-1.042.19-2.207.19-1.165 0-1.747 0-2.207-.19A2.5 2.5 0 0 1 3.19 8.957z" stroke="#000" stroke-width="1.5" stroke-linecap="square" stroke-linejoin="round"/></svg>