<svg width="16" height="17" fill="none" xmlns="http://www.w3.org/2000/svg"><g opacity=".8" stroke="#3D3568" stroke-linecap="round" stroke-linejoin="round"><path d="M2.879 13.515C2 12.636 2 11.222 2 8.394c0-2.829 0-4.243.879-5.122.878-.878 2.293-.878 5.121-.878 2.828 0 4.243 0 5.121.878C14 4.151 14 5.565 14 8.394c0 2.828 0 4.242-.879 5.12-.878.88-2.293.88-5.121.88-2.828 0-4.243 0-5.121-.88z"/><path d="m4.666 9.727 1.862-1.862c.26-.26.682-.26.943 0l1.057 1.057c.26.26.682.26.943 0l1.862-1.862"/></g></svg>