<svg width="41" height="41" viewBox="0 0 41 41" fill="none" xmlns="http://www.w3.org/2000/svg">
<path d="M21.7031 26.602H22.7893C23.8754 26.602 24.7777 25.6328 24.7777 24.4631C24.7777 23.0094 24.2597 22.7253 23.4075 22.4245L21.7198 21.8397V26.602H21.7031Z" fill="#292D32"/>
<path d="M20.4 3.17486C11.1762 3.20828 3.70693 10.711 3.74035 19.9348C3.77377 29.1586 11.2765 36.6279 20.5003 36.5944C29.7241 36.561 37.1933 29.0583 37.1599 19.8345C37.1265 10.6107 29.6238 3.15815 20.4 3.17486ZM24.2265 20.0518C25.5299 20.5029 27.2844 21.4721 27.2844 24.4631C27.2844 27.0364 25.2626 29.1085 22.7895 29.1085H21.7034V30.0776C21.7034 30.7627 21.1352 31.3309 20.4501 31.3309C19.765 31.3309 19.1969 30.7627 19.1969 30.0776V29.1085H18.5953C15.8549 29.1085 13.6325 26.8025 13.6325 23.9618C13.6325 23.2767 14.2007 22.7086 14.8858 22.7086C15.5709 22.7086 16.139 23.2767 16.139 23.9618C16.139 25.4156 17.2419 26.602 18.5953 26.602H19.1969V20.9541L16.6737 20.0518C15.3704 19.6006 13.6158 18.6314 13.6158 15.6404C13.6158 13.0671 15.6377 10.995 18.1108 10.995H19.1969V10.0259C19.1969 9.34078 19.765 8.77264 20.4501 8.77264C21.1352 8.77264 21.7034 9.34078 21.7034 10.0259V10.995H22.3049C25.0453 10.995 27.2677 13.301 27.2677 16.1417C27.2677 16.8268 26.6996 17.3949 26.0145 17.3949C25.3294 17.3949 24.7613 16.8268 24.7613 16.1417C24.7613 14.6879 23.6584 13.5015 22.3049 13.5015H21.7034V19.1494L24.2265 20.0518Z" fill="#292D32"/>
<path d="M16.1387 15.6561C16.1387 17.1099 16.6567 17.3939 17.5089 17.6947L19.1966 18.2795V13.5005H18.1104C17.0243 13.5005 16.1387 14.4697 16.1387 15.6561Z" fill="#292D32"/>
</svg>
