<svg width="16" height="16" fill="none" xmlns="http://www.w3.org/2000/svg"><g opacity=".8" stroke="#3D3568" stroke-linecap="round"><path d="M8 14.667H7c-2.515 0-3.772 0-4.553-.781-.781-.781-.781-2.038-.781-4.553V6.667c0-2.514 0-3.771.781-4.552.781-.782 2.038-.782 4.552-.782h.667c2.514 0 3.771 0 4.552.782.781.78.781 2.038.781 4.552v.667M4.666 4.667h5.333M4.666 8h3" stroke-linejoin="round"/><path d="M11.667 13.848c1.178 0 2.133-.977 2.133-2.182s-.955-2.181-2.133-2.181m0 4.363c-1.178 0-2.134-.977-2.134-2.182s.956-2.181 2.134-2.181m0 4.363v.818m0-5.181v-.819m-1.94 1.81L9 10.03m5.333 3.273-.727-.446m0-2.38.727-.447M9 13.303l.727-.446"/></g></svg>