<svg width="24" height="24" fill="none" xmlns="http://www.w3.org/2000/svg"><path fill-rule="evenodd" clip-rule="evenodd" d="M7 1.125a1 1 0 0 1 1 1v2a1 1 0 0 1-2 0v-2a1 1 0 0 1 1-1zm5 0a1 1 0 0 1 1 1v2a1 1 0 1 1-2 0v-2a1 1 0 0 1 1-1zm5 0a1 1 0 0 1 1 1v2a1 1 0 1 1-2 0v-2a1 1 0 0 1 1-1z" fill="#8D8D8D" fill-opacity=".3"/><path fill-rule="evenodd" clip-rule="evenodd" d="M13.556 2.375h-3.112c-1.602 0-2.881 0-3.884.135-1.037.14-1.89.435-2.565 1.11s-.97 1.528-1.11 2.565c-.135 1.003-.135 2.282-.135 3.884v5.112c0 1.602 0 2.881.135 3.884.14 1.037.435 1.89 1.11 2.565s1.528.97 2.565 1.11c1.003.135 2.282.135 3.884.135h3.112c1.602 0 2.881 0 3.884-.135 1.037-.14 1.89-.435 2.565-1.11s.97-1.528 1.11-2.565c.135-1.003.135-2.282.135-3.884v-5.112c0-1.602 0-2.881-.135-3.884-.14-1.037-.435-1.89-1.11-2.565s-1.528-.97-2.565-1.11c-1.003-.135-2.282-.135-3.884-.135zM8 9.125a1 1 0 0 0 0 2h8a1 1 0 1 0 0-2H8zm0 5a1 1 0 1 0 0 2h4a1 1 0 1 0 0-2H8z" fill="#8D8D8D" fill-opacity=".3"/></svg>