<svg width="47" height="46" viewBox="0 0 47 46" fill="none" xmlns="http://www.w3.org/2000/svg">
<path d="M44.8697 45.1066H2.13949C1.26352 45.1066 0.537109 44.3802 0.537109 43.5042C0.537109 42.6283 1.26352 41.9019 2.13949 41.9019H44.8697C45.7457 41.9019 46.4721 42.6283 46.4721 43.5042C46.4721 44.3802 45.7457 45.1066 44.8697 45.1066Z" fill="#DDEEFB"/>
<path d="M5.77117 43.5035H2.56641L2.67323 17.8012C2.67323 15.9852 3.50647 14.2974 4.93793 13.1864L19.8935 1.54243C22.0087 -0.102685 24.9784 -0.102685 27.1149 1.54243L42.0705 13.1651C43.4806 14.276 44.3352 16.0066 44.3352 17.8012V43.5035H41.1304V17.8226C41.1304 17.0108 40.7459 16.2203 40.1049 15.7075L25.1493 4.08488C24.1879 3.3371 22.8419 3.3371 21.8591 4.08488L6.90352 15.7289C6.26257 16.2203 5.878 17.0108 5.878 17.8226L5.77117 43.5035Z" fill="#DDEEFB"/>
<path d="M34.1862 45.1063H12.8211C11.9452 45.1063 11.2188 44.3799 11.2188 43.5039V23.2071C11.2188 20.5578 13.3766 18.3999 16.0259 18.3999H30.9815C33.6308 18.3999 35.7886 20.5578 35.7886 23.2071V43.5039C35.7886 44.3799 35.0622 45.1063 34.1862 45.1063ZM14.4235 41.9015H32.5839V23.2071C32.5839 22.3311 31.8575 21.6047 30.9815 21.6047H16.0259C15.1499 21.6047 14.4235 22.3311 14.4235 23.2071V41.9015Z" fill="#DDEEFB"/>
<path d="M19.2313 36.0262C18.3553 36.0262 17.6289 35.2998 17.6289 34.4239V31.2191C17.6289 30.3431 18.3553 29.6167 19.2313 29.6167C20.1073 29.6167 20.8337 30.3431 20.8337 31.2191V34.4239C20.8337 35.2998 20.1073 36.0262 19.2313 36.0262Z" fill="#DDEEFB"/>
<path d="M26.7092 14.1271H20.2996C19.4237 14.1271 18.6973 13.4007 18.6973 12.5247C18.6973 11.6488 19.4237 10.9224 20.2996 10.9224H26.7092C27.5852 10.9224 28.3116 11.6488 28.3116 12.5247C28.3116 13.4007 27.5852 14.1271 26.7092 14.1271Z" fill="#DDEEFB"/>
</svg>
