<svg width="38" height="39" viewBox="0 0 38 39" fill="none" xmlns="http://www.w3.org/2000/svg">
<path d="M20.8542 2.38461C24.9946 1.58435 29.4656 2.78474 32.6841 5.98578C37.8162 11.1179 37.8162 19.4859 32.6841 24.6006C29.1003 28.167 23.9682 29.263 19.4624 27.8538L11.2685 36.0304C10.677 36.6393 9.51141 37.0046 8.67635 36.8828L4.88382 36.3609C3.63124 36.1869 2.46564 35.004 2.27428 33.7514L1.75237 29.9588C1.63059 29.1238 2.03072 27.9582 2.60482 27.3667L4.55328 25.4182L10.764 19.2075C9.37223 14.6842 10.4508 9.55215 14.0346 5.98578" stroke="#DDEEFB" stroke-width="2.48297" stroke-miterlimit="10" stroke-linecap="round" stroke-linejoin="round"/>
<path d="M10.2422 29.0718L14.2435 33.0731" stroke="#DDEEFB" stroke-width="2.48297" stroke-miterlimit="10" stroke-linecap="round" stroke-linejoin="round"/>
<path d="M23.4806 17.7811C24.9218 17.7811 26.0902 16.6127 26.0902 15.1716C26.0902 13.7303 24.9218 12.562 23.4806 12.562C22.0395 12.562 20.8711 13.7303 20.8711 15.1716C20.8711 16.6127 22.0395 17.7811 23.4806 17.7811Z" stroke="#DDEEFB" stroke-width="2.48297" stroke-linecap="round" stroke-linejoin="round"/>
</svg>
