<svg width="13" height="12" fill="none" xmlns="http://www.w3.org/2000/svg"><path d="M6.283 11h-.75c-1.885 0-2.828 0-3.414-.586-.586-.586-.586-1.528-.586-3.414V5c0-1.886 0-2.828.586-3.414C2.705 1 3.648 1 5.533 1h.5c1.886 0 2.829 0 3.414.586.586.586.586 1.528.586 3.414v.5M3.783 3.5h4m-4 2.5h2.25" stroke="#fff" stroke-width=".75" stroke-linecap="round" stroke-linejoin="round"/><path d="M9.033 10.386c.884 0 1.6-.733 1.6-1.636 0-.904-.716-1.637-1.6-1.637m0 3.273c-.883 0-1.6-.733-1.6-1.636 0-.904.717-1.637 1.6-1.637m0 3.273V11m0-3.887V6.5M7.58 7.857l-.546-.335m4 2.455-.545-.335m0-1.785.545-.335m-4 2.455.546-.335" stroke="#fff" stroke-width=".75" stroke-linecap="round"/></svg>