<svg width="16" height="16" viewBox="0 0 16 16" fill="none" xmlns="http://www.w3.org/2000/svg">
<path fill-rule="evenodd" clip-rule="evenodd" d="M4.33203 4.33317C4.33203 2.30812 5.97365 0.666504 7.9987 0.666504C10.0238 0.666504 11.6654 2.30812 11.6654 4.33317V5.99984C11.6654 6.36802 11.3669 6.6665 10.9987 6.6665C10.6305 6.6665 10.332 6.36802 10.332 5.99984V4.33317C10.332 3.0445 9.28736 1.99984 7.9987 1.99984C6.71003 1.99984 5.66536 3.0445 5.66536 4.33317V5.99984C5.66536 6.36802 5.36688 6.6665 4.9987 6.6665C4.63051 6.6665 4.33203 6.36802 4.33203 5.99984V4.33317Z" fill="#373737"/>
<path fill-rule="evenodd" clip-rule="evenodd" d="M4.0013 5.5C2.98872 5.5 2.16788 6.32091 2.16797 7.33353L2.16852 13.3335C2.16862 14.3459 2.9894 15.1667 4.00186 15.1667H12.0012C13.0137 15.1667 13.8345 14.3459 13.8345 13.3333V7.33333C13.8345 6.32081 13.0137 5.5 12.0012 5.5H4.0013ZM8.66797 9.66667C8.66797 9.29847 8.3695 9 8.0013 9C7.6331 9 7.33464 9.29847 7.33464 9.66667V11C7.33464 11.3682 7.6331 11.6667 8.0013 11.6667C8.3695 11.6667 8.66797 11.3682 8.66797 11V9.66667Z" fill="#373737"/>
</svg>
