<svg width="18" height="18" fill="none" xmlns="http://www.w3.org/2000/svg"><rect x=".115" y=".524" width="17.27" height="17.27" rx="8.635" fill="#25A4E8"/><path fill-rule="evenodd" clip-rule="evenodd" d="M4.72 9.64a.48.48 0 1 1 0-.96.48.48 0 0 1 0 .96zm-1.439-.48a1.44 1.44 0 1 0 2.878 0 1.44 1.44 0 0 0-2.878 0zM8.75 9.64a.48.48 0 1 1 0-.96.48.48 0 0 1 0 .96zm-1.44-.48a1.44 1.44 0 1 0 2.879 0 1.44 1.44 0 0 0-2.878 0zM12.779 9.64a.48.48 0 1 1 0-.96.48.48 0 0 1 0 .96zm-1.44-.48a1.44 1.44 0 1 0 2.88 0 1.44 1.44 0 0 0-2.88 0z" fill="#fff"/></svg>