<svg width="40" height="40" viewBox="0 0 40 40" fill="none" xmlns="http://www.w3.org/2000/svg">
<path d="M32.2326 24.15L30.5659 21.3833C30.2159 20.7667 29.8993 19.6 29.8993 18.9167V14.7C29.8993 10.7833 27.5993 7.39999 24.2826 5.81666C23.4159 4.28333 21.8159 3.33333 19.9826 3.33333C18.1659 3.33333 16.5326 4.31666 15.6659 5.86666C12.4159 7.48333 10.1659 10.8333 10.1659 14.7V18.9167C10.1659 19.6 9.84925 20.7667 9.49925 21.3667L7.81592 24.15C7.14925 25.2667 6.99925 26.5 7.41592 27.6333C7.81592 28.75 8.76592 29.6167 9.99925 30.0333C13.2326 31.1333 16.6326 31.6667 20.0326 31.6667C23.4326 31.6667 26.8326 31.1333 30.0659 30.05C31.2326 29.6667 32.1326 28.7833 32.5659 27.6333C32.9993 26.4833 32.8826 25.2167 32.2326 24.15Z" fill="#292D32"/>
<path d="M24.7155 33.35C24.0155 35.2833 22.1655 36.6667 19.9988 36.6667C18.6822 36.6667 17.3822 36.1333 16.4655 35.1833C15.9322 34.6833 15.5322 34.0167 15.2988 33.3333C15.5155 33.3667 15.7322 33.3833 15.9655 33.4167C16.3488 33.4667 16.7488 33.5167 17.1488 33.55C18.0988 33.6333 19.0655 33.6833 20.0322 33.6833C20.9822 33.6833 21.9322 33.6333 22.8655 33.55C23.2155 33.5167 23.5655 33.5 23.8988 33.45C24.1655 33.4167 24.4322 33.3833 24.7155 33.35Z" fill="#292D32"/>
</svg>
