<svg width="24" height="24" fill="none" xmlns="http://www.w3.org/2000/svg"><path d="M18.482 12.951H17.08v-.854h1.588a.966.966 0 0 0 .961-.967V7.52a.966.966 0 0 0-.96-.966H12.89a.969.969 0 0 0-.968.969v3.607c0 .534.434.967.968.967h1.583v.854H11.4c.144-1.662-.665-3.316-2.227-4 2.529-2.074-.413-5.854-3.044-3.913-1.26.954-1.268 2.925-.022 3.895A3.783 3.783 0 0 0 3.84 12.39v.818c-.524.314-.845.88-.847 1.49v4.054A1.75 1.75 0 0 0 4.74 20.5h13.742a1.75 1.75 0 0 0 1.748-1.747v-4.054a1.753 1.753 0 0 0-1.748-1.748zm-5.591-1.73a.094.094 0 0 1-.091-.091V7.52c-.001-.048.039-.089.088-.09h5.78c.05 0 .09.043.086.093v3.607a.089.089 0 0 1-.085.09H17.08V10.08a.708.708 0 0 0-.706-.706h-1.197a.707.707 0 0 0-.704.706v1.142h-1.583zm3.316-.972v2.702h-.856v-2.702h.856zM6.049 7.008c.055-2.112 3.15-2.114 3.204-.001-.053 2.112-3.15 2.113-3.204 0zm1.591 2.48c1.858.012 3.086 1.679 2.884 3.463h-.841c-.025-.38.153-1.116-.438-1.13-.592.014-.414.75-.439 1.13H6.437c-.025-.38.154-1.116-.438-1.13-.591.014-.414.75-.438 1.13h-.84c-.217-1.8 1.05-3.476 2.919-3.463zm11.713 9.265a.872.872 0 0 1-.87.87H4.74c-.481 0-.87-.39-.871-.87v-4.054c0-.481.39-.87.87-.871h13.743c.481 0 .87.39.872.87v4.055z" fill="#654EE4"/></svg>