<svg width="24" height="25" fill="none" xmlns="http://www.w3.org/2000/svg"><path d="M15 8s.5 0 1 1c0 0 1.588-2.5 3-3" stroke="#000" stroke-width="1.5" stroke-linecap="round" stroke-linejoin="round"/><path d="M22 7.5a5 5 0 1 1-10 0 5 5 0 0 1 10 0z" stroke="#000" stroke-width="1.5" stroke-linecap="round"/><path d="M22.75 13.745a.75.75 0 1 0-1.5.002l1.5-.002zM9.066 7.253a.75.75 0 0 0-.009-1.5l.009 1.5zM13.5 21.75h-3v1.5h3v-1.5zm-3 0c-1.897 0-3.256 0-4.301-.119-1.03-.116-1.655-.338-2.127-.71l-.93 1.177c.784.619 1.726.893 2.889 1.024 1.148.13 2.607.128 4.469.128v-1.5zM1.25 14.5c0 1.75-.001 3.132.138 4.223.141 1.11.439 2.016 1.105 2.764l1.12-.999c-.387-.433-.616-1.002-.737-1.955-.125-.974-.126-2.244-.126-4.033h-1.5zm2.822 6.42a3.623 3.623 0 0 1-.46-.432l-1.119.999c.198.221.415.426.65.611l.93-1.177zM21.25 14.5c0 1.789-.001 3.06-.126 4.033-.121.953-.35 1.522-.737 1.955l1.12.999c.666-.748.964-1.653 1.105-2.764.14-1.09.138-2.474.138-4.223h-1.5zm-7.75 8.75c1.862 0 3.321.002 4.47-.128 1.162-.131 2.104-.405 2.887-1.024l-.93-1.177c-.47.372-1.095.594-2.126.71-1.044.118-2.404.12-4.301.12v1.5zm6.887-2.762c-.139.156-.292.301-.46.433l.93 1.177c.235-.185.452-.39.65-.611l-1.12-.999zM2.75 14.5c0-1.788.001-3.059.126-4.032.121-.953.35-1.522.737-1.956l-1.12-.998c-.666.747-.964 1.653-1.105 2.764-.14 1.09-.138 2.473-.138 4.222h1.5zm.393-7.597c-.235.185-.452.39-.65.611l1.12.998c.139-.156.292-.3.46-.432l-.93-1.177zM22.75 14.5v-.755l-1.5.002v.753h1.5zM9.057 5.753c-1.407.008-2.553.04-3.491.188-.953.15-1.747.428-2.423.962l.93 1.177c.407-.322.928-.53 1.726-.657.813-.128 1.852-.162 3.267-.17l-.009-1.5z" fill="#000"/><path d="M10 18.5h1.5M14.5 18.5H18" stroke="#000" stroke-width="1.5" stroke-miterlimit="10" stroke-linecap="round" stroke-linejoin="round"/><path d="M2.5 11.5H10" stroke="#000" stroke-width="1.5" stroke-linecap="round" stroke-linejoin="round"/></svg>