<svg width="12" height="12" fill="none" xmlns="http://www.w3.org/2000/svg"><path fill-rule="evenodd" clip-rule="evenodd" d="M5.276 2.22a.812.812 0 0 1 1.44 0l1.011 1.963a.115.115 0 0 0 .085.061l2.196.347a.798.798 0 0 1 .445 1.356l-1.572 1.56a.114.114 0 0 0-.032.1l.346 2.178c.103.646-.577 1.135-1.165.838l-1.981-1a.116.116 0 0 0-.105 0l-1.981 1c-.588.297-1.268-.192-1.165-.838l.346-2.179a.114.114 0 0 0-.032-.098L1.54 5.947a.798.798 0 0 1 .445-1.356l2.196-.347a.115.115 0 0 0 .085-.06l1.01-1.964z" fill="#E9C51A"/></svg>