<svg width="19" height="19" fill="none" xmlns="http://www.w3.org/2000/svg"><path d="M6.766 10.54h5.333M6.766 7.205h2.666" stroke="#25A4E8" stroke-linecap="round" stroke-linejoin="round"/><path d="M5.498 14.206c-.867-.085-1.516-.345-1.951-.781-.781-.781-.781-2.038-.781-4.552v-.334c0-2.514 0-3.77.78-4.552.782-.781 2.039-.781 4.553-.781h2.667c2.514 0 3.77 0 4.552.781.781.781.781 2.038.781 4.552v.334c0 2.514 0 3.771-.781 4.552-.781.781-2.038.781-4.552.781a4.696 4.696 0 0 0-.964.103c-.799.184-1.539.593-2.27.95-1.042.508-1.562.762-1.89.524-.625-.466-.013-1.909.124-2.577" stroke="#25A4E8" stroke-linecap="round"/></svg>