<svg width="16" height="16" fill="none" xmlns="http://www.w3.org/2000/svg"><g clip-path="url(#a)" stroke="#3D3568" stroke-linecap="round"><path d="m10 1.333 2.333 2.334m0 0L14.667 6m-2.334-2.333 2.334-2.333m-2.334 2.333L10 6" stroke-linejoin="round"/><path d="M4.067 13c-.867-.085-1.517-.346-1.952-.781-.781-.781-.781-2.038-.781-4.552v-.334c0-2.514 0-3.77.781-4.552C2.896 2 4.153 2 6.667 2h1M4.334 12c-.137.668-.748 2.111-.123 2.577.327.238.848-.017 1.89-.524.73-.357 1.47-.766 2.27-.95.292-.066.59-.095.963-.103 2.514 0 3.771 0 4.552-.781.746-.746.78-1.925.781-4.219"/><path d="M5.334 9.333h4M5.334 6h2" stroke-linejoin="round"/></g><defs><clipPath id="a"><path fill="#fff" d="M0 0h16v16H0z"/></clipPath></defs></svg>