<svg width="13" height="13" fill="none" xmlns="http://www.w3.org/2000/svg"><g clip-path="url(#a)" stroke="#B5B5B5" stroke-width=".785" stroke-linecap="round"><path d="m8.225 1.128 1.831 1.832m0 0 1.832 1.832M10.056 2.96l1.832-1.832M10.056 2.96 8.225 4.792" stroke-linejoin="round"/><path d="M3.567 10.287c-.68-.067-1.19-.271-1.532-.613-.613-.613-.613-1.6-.613-3.574V5.84c0-1.974 0-2.96.613-3.574.613-.613 1.6-.613 3.574-.613h.785m-2.617 7.85c-.108.524-.587 1.657-.097 2.023.257.186.666-.013 1.484-.412.574-.28 1.154-.6 1.781-.745.23-.052.464-.075.757-.081 1.973 0 2.96 0 3.573-.613.586-.586.612-1.512.614-3.312"/><path d="M4.563 7.409h3.14m-3.14-2.617h1.57" stroke-linejoin="round"/></g><defs><clipPath id="a"><path fill="#fff" transform="translate(.375 .082)" d="M0 0h12.56v12.56H0z"/></clipPath></defs></svg>