<svg width="24" height="25" fill="none" xmlns="http://www.w3.org/2000/svg"><path d="M14.918 19.42v2.146c0 .71-.619 1.29-1.375 1.29h-8.25c-.756 0-1.375-.58-1.375-1.29V4.434c0-1.58.442-2.29 2.375-2.29h7.25c.756 0 1.375.58 1.375 1.29v12.16" stroke="#060404" stroke-width="1.5" stroke-miterlimit="22.926" stroke-linecap="round" stroke-linejoin="round"/><path fill-rule="evenodd" clip-rule="evenodd" d="M6.918 10.885c.413 0 .75-.337.75-.75a.751.751 0 0 0-.75-.75.751.751 0 0 0-.75.75c0 .413.337.75.75.75zM9.418 10.885c.413 0 .75-.337.75-.75a.751.751 0 0 0-.75-.75.751.751 0 0 0-.75.75c0 .413.337.75.75.75zM11.918 10.885c.413 0 .75-.337.75-.75a.751.751 0 0 0-.75-.75.751.751 0 0 0-.75.75c0 .413.337.75.75.75zM6.918 8.385c.413 0 .75-.337.75-.75a.751.751 0 0 0-.75-.75.751.751 0 0 0-.75.75c0 .413.337.75.75.75zM9.418 8.385c.413 0 .75-.337.75-.75a.751.751 0 0 0-.75-.75.751.751 0 0 0-.75.75c0 .413.337.75.75.75zM11.918 8.385c.413 0 .75-.337.75-.75a.751.751 0 0 0-.75-.75.751.751 0 0 0-.75.75c0 .413.337.75.75.75zM6.918 5.885c.413 0 .75-.337.75-.75a.751.751 0 0 0-.75-.75.751.751 0 0 0-.75.75c0 .413.337.75.75.75zM9.418 5.885c.413 0 .75-.337.75-.75a.751.751 0 0 0-.75-.75.751.751 0 0 0-.75.75c0 .413.337.75.75.75zM11.918 5.885c.413 0 .75-.337.75-.75a.751.751 0 0 0-.75-.75.751.751 0 0 0-.75.75c0 .413.337.75.75.75z" fill="#060404"/><path d="M9.516 15.933c.606 0 1.15.268 1.525.692h8.066c.75 0 1.364.624 1.364 1.386 0 .761-.614 1.384-1.364 1.384h-8.066a2.026 2.026 0 0 1-1.525.693c-1.13 0-2.045-.93-2.045-2.078 0-1.147.915-2.077 2.045-2.077z" stroke="#060404" stroke-width="1.5" stroke-miterlimit="22.926" stroke-linecap="round" stroke-linejoin="round"/><path d="M9.404 12.734a.236.236 0 0 0 .235-.234.236.236 0 0 0-.235-.234.236.236 0 0 0-.234.234c0 .128.106.234.234.234z" fill="#060404" stroke="#060404" stroke-width="1.031"/></svg>