<svg width="29" height="29" fill="none" xmlns="http://www.w3.org/2000/svg"><rect x="1.21" y="1.431" width="26.833" height="26.833" rx="13.417" fill="#EBEBEB"/><rect x="1.21" y="1.431" width="26.833" height="26.833" rx="13.417" stroke="#737373" stroke-width="1.167"/><g clip-path="url(#a)"><mask id="b" style="mask-type:luminance" maskUnits="userSpaceOnUse" x="7" y="6" width="18" height="18"><path d="M7.37 6.293h16.847v17.111H7.369V6.294z" fill="#fff"/></mask><g mask="url(#b)" stroke="#6D6D6D"><path d="M17.403 19.394v2.507a.998.998 0 0 1-.987 1.002h-5.923a.998.998 0 0 1-.987-1.002V7.797a.998.998 0 0 1 .987-1.002h5.923c.543 0 .987.451.987 1.002v9.458" stroke-width="1.011" stroke-miterlimit="22.926" stroke-linecap="round" stroke-linejoin="round"/><path d="M11.48 12.91c.044 0 .092-.039.092-.099 0-.06-.048-.1-.092-.1-.045 0-.092.04-.092.1 0 .06.047.1.091.1zM13.452 12.91c.045 0 .093-.039.093-.099 0-.06-.048-.1-.093-.1-.044 0-.092.04-.092.1 0 .06.048.1.092.1zM15.429 12.91c.044 0 .092-.039.092-.099 0-.06-.048-.1-.092-.1-.045 0-.092.04-.092.1 0 .06.047.1.092.1zM11.48 10.905c.044 0 .092-.039.092-.1 0-.06-.048-.1-.092-.1-.045 0-.092.04-.092.1 0 .06.047.1.091.1zM13.452 10.905c.045 0 .093-.039.093-.1 0-.06-.048-.1-.093-.1-.044 0-.092.04-.092.1 0 .06.048.1.092.1zM15.429 10.905c.044 0 .092-.039.092-.1 0-.06-.048-.1-.092-.1-.045 0-.092.04-.092.1 0 .06.047.1.092.1zM11.48 8.9c.044 0 .092-.039.092-.1 0-.06-.048-.1-.092-.1-.045 0-.092.04-.092.1 0 .06.047.1.091.1zM13.452 8.9c.045 0 .093-.039.093-.1 0-.06-.048-.1-.093-.1-.044 0-.092.04-.092.1 0 .06.048.1.092.1zM15.429 8.9c.044 0 .092-.039.092-.1 0-.06-.048-.1-.092-.1-.045 0-.092.04-.092.1 0 .061.047.1.092.1z" fill="#6D6D6D" stroke-width=".802"/><path d="M13.422 16.853c.439 0 .833.194 1.104.501h6.563c.543 0 .987.451.987 1.003a.998.998 0 0 1-.987 1.003h-6.563a1.467 1.467 0 0 1-1.104.5c-.818 0-1.48-.672-1.48-1.503 0-.83.662-1.504 1.48-1.504z" stroke-width="1.011" stroke-miterlimit="22.926" stroke-linecap="round" stroke-linejoin="round"/><path d="M13.452 14.916c.045 0 .093-.04.093-.1 0-.06-.048-.1-.093-.1-.044 0-.092.04-.092.1 0 .06.048.1.092.1z" fill="#6D6D6D" stroke-width=".802"/></g></g><defs><clipPath id="a"><path fill="#fff" transform="translate(8.95 6.293)" d="M0 0h13.689v17.111H0z"/></clipPath></defs></svg>