<svg width="20" height="20" fill="none" xmlns="http://www.w3.org/2000/svg"><rect x=".998" y="1.132" width="18.055" height="18.055" rx="9.027" fill="#FBEAEA"/><rect x=".998" y="1.132" width="18.055" height="18.055" rx="9.027" stroke="#EF5A5C" stroke-width=".785"/><g clip-path="url(#a)"><mask id="b" style="mask-type:luminance" maskUnits="userSpaceOnUse" x="5" y="4" width="12" height="12"><path d="M5.139 4.402h11.336v11.513H5.139V4.402z" fill="#fff"/></mask><g mask="url(#b)" stroke="#EF5A5C"><path d="M11.892 13.217v1.687a.671.671 0 0 1-.664.675H7.242a.671.671 0 0 1-.664-.675v-9.49c0-.37.299-.674.664-.674h3.986c.365 0 .664.303.664.675v6.363" stroke-width=".68" stroke-miterlimit="22.926" stroke-linecap="round" stroke-linejoin="round"/><path d="M7.906 8.855c.03 0 .063-.026.063-.067a.066.066 0 0 0-.063-.067.066.066 0 0 0-.062.067c0 .04.032.067.062.067zM9.234 8.855c.03 0 .063-.026.063-.067a.066.066 0 0 0-.063-.067.066.066 0 0 0-.062.067c0 .04.033.067.062.067zM10.565 8.855c.03 0 .062-.026.062-.067a.066.066 0 0 0-.063-.067.066.066 0 0 0-.062.067c0 .04.033.067.063.067zM7.906 7.506c.03 0 .063-.027.063-.067a.066.066 0 0 0-.063-.067.066.066 0 0 0-.062.067c0 .04.032.067.062.067zM9.234 7.506c.03 0 .063-.027.063-.067a.066.066 0 0 0-.063-.067.066.066 0 0 0-.062.067c0 .04.033.067.062.067zM10.565 7.506c.03 0 .062-.027.062-.067a.066.066 0 0 0-.063-.067.066.066 0 0 0-.062.067c0 .04.033.067.063.067zM7.906 6.157c.03 0 .063-.027.063-.068a.066.066 0 0 0-.063-.067.066.066 0 0 0-.062.067c0 .04.032.068.062.068zM9.234 6.157c.03 0 .063-.027.063-.068a.066.066 0 0 0-.063-.067.066.066 0 0 0-.062.067c0 .04.033.068.062.068zM10.565 6.157c.03 0 .062-.027.062-.068a.066.066 0 0 0-.063-.067.066.066 0 0 0-.062.067c0 .04.033.068.063.068z" fill="#EF5A5C" stroke-width=".54"/><path d="M9.213 11.507c.295 0 .56.13.743.338h4.416c.365 0 .664.303.664.674a.671.671 0 0 1-.664.675H9.956a.987.987 0 0 1-.743.337c-.55 0-.996-.453-.996-1.012 0-.559.446-1.012.996-1.012z" stroke-width=".68" stroke-miterlimit="22.926" stroke-linecap="round" stroke-linejoin="round"/><path d="M9.234 10.205c.03 0 .063-.027.063-.068a.066.066 0 0 0-.063-.067.066.066 0 0 0-.062.067c0 .04.033.067.062.068z" fill="#EF5A5C" stroke-width=".54"/></g></g><defs><clipPath id="a"><path fill="#fff" transform="translate(6.203 4.403)" d="M0 0h9.211v11.513H0z"/></clipPath></defs></svg>