<svg width="29" height="29" fill="none" xmlns="http://www.w3.org/2000/svg"><rect x="1.376" y="1.51" width="26.833" height="26.833" rx="13.417" fill="#F0F6FD"/><rect x="1.376" y="1.51" width="26.833" height="26.833" rx="13.417" stroke="#604BD2" stroke-width="1.167"/><g clip-path="url(#a)"><path fill-rule="evenodd" clip-rule="evenodd" d="M22.376 10.358a2.85 2.85 0 0 0-2.849-2.848h-9.47a2.85 2.85 0 0 0-2.848 2.848v9.137a2.85 2.85 0 0 0 2.848 2.848h9.47a2.85 2.85 0 0 0 2.849-2.848v-9.137z" fill="#0C3B7C"/><path fill-rule="evenodd" clip-rule="evenodd" d="M7.209 16.725h7.575v5.618H7.209v-5.618z" fill="#0C3B7C"/><path d="m14.101 17.328-1.221-.002v-1.46c0-.312.12-.475.388-.512h.833c.595 0 .98.375.98.982 0 .622-.375.991-.98.992zm-1.221-3.94v-.384c0-.337.142-.497.454-.518h.626c.536 0 .857.321.857.858 0 .409-.22.887-.838.887h-1.1v-.843zm2.781 1.458-.22-.124.192-.165c.225-.193.6-.627.6-1.375 0-1.146-.888-1.886-2.264-1.886h-1.748a.766.766 0 0 0-.739.757v6.503H14c1.53 0 2.516-.832 2.516-2.121 0-.694-.319-1.288-.855-1.59z" fill="#fff"/><path d="M17.172 17.657a.896.896 0 1 1 1.792 0 .897.897 0 1 1-1.792 0z" fill="#00BAFC"/></g><defs><clipPath id="a"><path fill="#fff" transform="translate(7.209 7.51)" d="M0 0h15.167v14.833H0z"/></clipPath></defs></svg>