<svg width="16" height="17" fill="none" xmlns="http://www.w3.org/2000/svg"><g opacity=".8" stroke="#3D3568"><path d="M7.33 7.06h.01m-.007 4h.01M4.666 9.06h5.333M11.666 3.727a1 1 0 1 1 0 2 1 1 0 0 1 0-2z" stroke-linecap="round" stroke-linejoin="round"/><path d="M1.85 7.823c-.669.747-.683 1.874-.07 2.666a22.67 22.67 0 0 0 4.125 4.125c.793.613 1.92.599 2.666-.07a61.568 61.568 0 0 0 5.678-5.798 1.3 1.3 0 0 0 .313-.73c.11-1.197.336-4.646-.601-5.582-.937-.937-4.386-.711-5.583-.601-.27.025-.523.136-.73.313A61.566 61.566 0 0 0 1.85 7.823z"/></g></svg>