<svg width="16" height="17" fill="none" xmlns="http://www.w3.org/2000/svg"><g opacity=".8" stroke="#3D3568" stroke-linejoin="round"><path d="m10.95 3.464.66-.66a1.4 1.4 0 0 1 1.98 1.98l-.66.66m-1.98-1.98-4.439 4.44a2.64 2.64 0 0 0-.694 1.226l-.483 1.93 1.93-.482a2.64 2.64 0 0 0 1.227-.695l4.44-4.44m-1.98-1.98 1.98 1.98"/><path d="M12.667 9.394c0 2.191 0 3.287-.606 4.025-.11.135-.234.259-.37.37-.737.605-1.833.605-4.024.605h-.334c-2.514 0-3.77 0-4.552-.781C2 12.832 2 11.575 2 9.06v-.333c0-2.192 0-3.287.605-4.025.111-.135.235-.259.37-.37.738-.605 1.833-.605 4.025-.605" stroke-linecap="round"/></g></svg>