<svg width="20" height="20" fill="none" xmlns="http://www.w3.org/2000/svg"><path fill-rule="evenodd" clip-rule="evenodd" d="M15.591 4.284c.071.265.097.556.106.899.122.01.239.023.351.039.756.1 1.423.322 1.958.855.534.533.755 1.199.857 1.953.097.718.097 1.625.097 2.725v1.74c0 1.1 0 2.007-.097 2.725-.102.754-.323 1.42-.857 1.953-.535.533-1.202.754-1.958.856-.72.096-1.629.096-2.732.096H8.313c-1.485 0-2.682 0-3.623-.126-.978-.131-1.8-.412-2.454-1.064-.654-.652-.935-1.473-1.067-2.448-.126-.94-.126-2.133-.126-3.615v-6.56a2.44 2.44 0 0 1 2.443-2.437h8.256c.648 0 1.129 0 1.546.11a3.254 3.254 0 0 1 2.303 2.299zm-2.725-.729c-.181-.048-.426-.055-1.236-.055H3.486a.813.813 0 1 0 0 1.625h9.83l.749.001a1.86 1.86 0 0 0-.048-.422c-.15-.56-.59-.998-1.151-1.149zM14.585 10a1.667 1.667 0 1 1 0 3.333 1.667 1.667 0 0 1 0-3.333z" fill="#2CC6A3"/></svg>